<mxfile host="app.diagrams.net" modified="2024-03-09T06:40:30.886Z" agent="Mozilla/5.0 (Windows NT 10.0; Win64; x64) AppleWebKit/537.36 (KHTML, like Gecko) Chrome/122.0.0.0 Safari/537.36" etag="1S6xW0T4oPhQhOI4T7YK" version="24.0.2" type="device">
  <diagram name="Halaman-1" id="8Kxz4LVxRM5ak8jdFSSY">
    <mxGraphModel dx="880" dy="1629" grid="1" gridSize="10" guides="1" tooltips="1" connect="1" arrows="1" fold="1" page="1" pageScale="1" pageWidth="827" pageHeight="1169" math="0" shadow="0">
      <root>
        <mxCell id="0" />
        <mxCell id="1" parent="0" />
        <mxCell id="qm7DmNqX62or4rYOWMOQ-3" value="" style="edgeStyle=orthogonalEdgeStyle;rounded=0;orthogonalLoop=1;jettySize=auto;html=1;" parent="1" source="qm7DmNqX62or4rYOWMOQ-1" target="qm7DmNqX62or4rYOWMOQ-2" edge="1">
          <mxGeometry relative="1" as="geometry" />
        </mxCell>
        <mxCell id="qm7DmNqX62or4rYOWMOQ-1" value="Mulai" style="rounded=1;whiteSpace=wrap;html=1;" parent="1" vertex="1">
          <mxGeometry x="354" y="-1130" width="120" height="60" as="geometry" />
        </mxCell>
        <mxCell id="qm7DmNqX62or4rYOWMOQ-2" value="Login" style="shape=parallelogram;perimeter=parallelogramPerimeter;whiteSpace=wrap;html=1;fixedSize=1;rounded=1;" parent="1" vertex="1">
          <mxGeometry x="354" y="-1030" width="120" height="60" as="geometry" />
        </mxCell>
        <mxCell id="qm7DmNqX62or4rYOWMOQ-10" value="" style="endArrow=classic;html=1;rounded=0;" parent="1" edge="1">
          <mxGeometry width="50" height="50" relative="1" as="geometry">
            <mxPoint x="410" y="-970" as="sourcePoint" />
            <mxPoint x="410" y="-920" as="targetPoint" />
          </mxGeometry>
        </mxCell>
        <mxCell id="qm7DmNqX62or4rYOWMOQ-13" value="" style="edgeStyle=orthogonalEdgeStyle;rounded=0;orthogonalLoop=1;jettySize=auto;html=1;" parent="1" source="qm7DmNqX62or4rYOWMOQ-11" edge="1">
          <mxGeometry relative="1" as="geometry">
            <mxPoint x="410" y="-780" as="targetPoint" />
          </mxGeometry>
        </mxCell>
        <mxCell id="qm7DmNqX62or4rYOWMOQ-11" value="Dahsboard" style="rounded=0;whiteSpace=wrap;html=1;" parent="1" vertex="1">
          <mxGeometry x="350" y="-920" width="120" height="60" as="geometry" />
        </mxCell>
        <mxCell id="UqwBi4rxBFzjS9jIbQpJ-3" value="" style="edgeStyle=orthogonalEdgeStyle;rounded=0;orthogonalLoop=1;jettySize=auto;html=1;" edge="1" parent="1" target="UqwBi4rxBFzjS9jIbQpJ-2">
          <mxGeometry relative="1" as="geometry">
            <mxPoint x="410" y="-720" as="sourcePoint" />
          </mxGeometry>
        </mxCell>
        <mxCell id="UqwBi4rxBFzjS9jIbQpJ-6" value="" style="edgeStyle=orthogonalEdgeStyle;rounded=0;orthogonalLoop=1;jettySize=auto;html=1;" edge="1" parent="1" source="UqwBi4rxBFzjS9jIbQpJ-2" target="UqwBi4rxBFzjS9jIbQpJ-5">
          <mxGeometry relative="1" as="geometry" />
        </mxCell>
        <mxCell id="UqwBi4rxBFzjS9jIbQpJ-2" value="Input Barang&lt;div&gt;Keluar&lt;/div&gt;" style="shape=parallelogram;perimeter=parallelogramPerimeter;whiteSpace=wrap;html=1;fixedSize=1;rounded=0;" vertex="1" parent="1">
          <mxGeometry x="350" y="-640" width="120" height="60" as="geometry" />
        </mxCell>
        <mxCell id="UqwBi4rxBFzjS9jIbQpJ-4" value="Menu Barang&lt;div&gt;Keluar&lt;/div&gt;" style="rounded=0;whiteSpace=wrap;html=1;" vertex="1" parent="1">
          <mxGeometry x="350" y="-780" width="120" height="60" as="geometry" />
        </mxCell>
        <mxCell id="UqwBi4rxBFzjS9jIbQpJ-5" value="&lt;span style=&quot;background-color: initial;&quot;&gt;Cetak Surat&lt;/span&gt;&lt;div&gt;&lt;span style=&quot;background-color: initial;&quot;&gt;Keluar&lt;/span&gt;&lt;/div&gt;" style="shape=parallelogram;perimeter=parallelogramPerimeter;whiteSpace=wrap;html=1;fixedSize=1;rounded=0;" vertex="1" parent="1">
          <mxGeometry x="350" y="-500" width="120" height="60" as="geometry" />
        </mxCell>
        <mxCell id="UqwBi4rxBFzjS9jIbQpJ-7" value="" style="edgeStyle=orthogonalEdgeStyle;rounded=0;orthogonalLoop=1;jettySize=auto;html=1;" edge="1" parent="1">
          <mxGeometry relative="1" as="geometry">
            <mxPoint x="409.5" y="-440" as="sourcePoint" />
            <mxPoint x="409.5" y="-400" as="targetPoint" />
          </mxGeometry>
        </mxCell>
        <mxCell id="UqwBi4rxBFzjS9jIbQpJ-8" value="Selesai" style="rounded=1;whiteSpace=wrap;html=1;" vertex="1" parent="1">
          <mxGeometry x="350" y="-400" width="120" height="60" as="geometry" />
        </mxCell>
      </root>
    </mxGraphModel>
  </diagram>
</mxfile>
